<svg width="1190" height="818" viewBox="0 0 1190 818" fill="none" xmlns="http://www.w3.org/2000/svg">
<path d="M514.405 161.079C538.587 196.067 574.726 213.014 595.128 198.925C615.522 184.836 612.455 145.053 588.272 110.064C564.09 75.0756 527.952 58.1285 507.549 72.2177C487.156 86.307 490.223 126.09 514.405 161.079Z" fill="url(#paint0_linear_4519_5747)"/>
<path d="M500.129 45.8985C507.932 45.8985 514.257 35.6226 514.257 22.9493C514.257 10.2759 507.932 0 500.129 0C492.326 0 486 10.2759 486 22.9493C486 35.6226 492.326 45.8985 500.129 45.8985Z" fill="url(#paint1_linear_4519_5747)"/>
<path d="M6.80203 133.944C18.9496 143.299 43.2273 132.154 61.0142 109.066C78.8011 85.969 83.3803 59.6668 71.224 50.3117C59.0765 40.9565 34.7988 52.101 17.0119 75.1893C-0.774986 98.2862 -5.35421 124.588 6.80203 133.944Z" fill="url(#paint2_linear_4519_5747)"/>
<g clip-path="url(#clip0_4519_5747)">
<path d="M347.646 800.024C346.839 801.164 346.185 801.734 346.102 801.053C346.019 800.33 347.576 797.98 348.147 797.188C347.952 797.452 347.674 797.73 347.451 797.855C347.229 797.98 347.062 797.967 347.076 797.633C347.076 796.799 348.619 794.449 350.455 791.266C350.845 790.64 351.206 790.014 351.554 789.403C351.888 788.791 352.194 788.179 352.486 787.581C353.056 786.4 353.543 785.218 353.904 784.05C354.628 781.729 354.822 779.435 354.502 777.488C354.586 779.171 354.294 780.658 353.904 781.854C353.515 783.049 353.028 783.981 352.583 784.662C351.693 786.01 350.998 786.358 350.914 785.58C350.775 784.69 351.053 783.369 351.331 782.104C351.471 781.478 351.61 780.867 351.735 780.324C351.86 779.782 351.957 779.323 352.055 779.018C351.804 779.31 351.61 779.143 351.457 778.781C351.29 778.42 351.178 777.864 351.053 777.405C350.9 776.779 350.719 776.126 350.525 775.361C350.316 774.597 350.135 773.735 349.76 772.622C349.496 771.691 348.981 770.926 348.355 770.37C347.729 769.814 347.006 769.467 346.311 769.272C345.615 769.077 344.948 769.036 344.336 769.063C343.724 769.077 343.167 769.189 342.653 769.286C341.582 769.522 341.012 769.925 340.914 770.106C340.859 770.19 340.914 770.231 341.109 770.217C341.29 770.19 341.582 770.106 341.999 769.953C343.418 769.564 344.558 769.578 345.365 769.745C346.185 769.912 346.672 770.203 346.978 770.44C347.576 770.954 347.465 771.288 347.326 771.482C347.284 771.538 347.229 771.566 347.145 771.608C347.062 771.649 346.964 771.677 346.867 771.691C346.756 771.705 346.644 771.733 346.505 771.747C346.366 771.774 346.241 771.761 346.088 771.788C345.504 771.844 344.781 771.927 344.085 771.969C344.586 772.303 344.725 772.664 344.614 772.998C344.489 773.345 344.113 773.665 343.446 774.166C343.014 774.485 342.625 774.763 342.277 774.986C342.097 775.097 341.93 775.208 341.763 775.292C341.582 775.403 341.401 775.486 341.22 775.57C340.497 775.903 339.76 776.029 339.065 775.903C339.051 776.251 338.926 776.64 338.731 777.057C338.633 777.252 338.508 777.488 338.383 777.711C338.272 777.891 338.133 778.128 338.008 778.322C337.882 778.531 337.743 778.74 337.618 778.934C337.104 779.741 336.603 780.491 336.172 780.95C335.741 781.423 335.365 781.617 335.129 781.45C334.656 781.186 334.294 781.075 333.988 781.075C333.835 781.075 333.696 781.103 333.557 781.159C333.488 781.186 333.432 781.214 333.362 781.256L333.265 781.311H333.237C333.237 781.311 333.223 781.353 333.209 781.325L333.14 781.256C332.681 780.589 332.222 780.005 331.749 779.351C331.443 778.92 331.137 778.587 330.873 778.309C330.609 778.031 330.358 777.822 330.191 777.697C329.83 777.461 329.705 777.488 330.233 778.114C331.401 779.588 332.236 781.061 332.514 781.868C332.639 782.271 332.625 782.521 332.431 782.549C332.236 782.59 331.874 782.41 331.332 782.02C330.803 781.645 330.261 781.214 329.746 780.811C329.218 780.38 328.717 779.963 328.203 779.546L327.827 779.226C327.827 779.226 327.771 779.184 327.702 779.129L327.646 779.087L327.535 778.99C327.396 778.865 327.243 778.726 327.104 778.573C326.812 778.295 326.534 777.975 326.242 777.655C325.769 777.836 324.795 777.53 323.947 777.127C323.112 776.724 322.375 776.181 322.459 775.584C322.264 774.485 321.235 773.637 320.066 773.192C319.774 773.095 319.482 772.984 319.19 772.928C318.898 772.873 318.62 772.831 318.356 772.789C317.827 772.761 317.396 772.748 317.118 772.789C317.994 772.789 319.009 772.97 319.802 773.526C320.289 773.846 320.164 774.18 319.747 774.43C319.538 774.555 319.26 774.638 318.954 774.708C318.801 774.75 318.634 774.777 318.467 774.791C318.384 774.791 318.3 774.805 318.217 774.805C318.133 774.805 318.036 774.819 317.952 774.833C317.021 774.847 316.297 774.694 315.56 774.471C315.199 774.374 314.837 774.277 314.461 774.193C314.1 774.138 313.697 774.096 313.293 774.152C312.125 774.277 310.859 774.791 309.733 775.598C310.247 775.486 310.706 775.5 311.054 775.57C311.402 775.667 311.624 775.834 311.68 776.042C311.736 776.265 311.61 776.501 311.304 776.835C311.151 777.002 310.929 777.169 310.679 777.377C310.553 777.488 310.4 777.586 310.247 777.711C310.094 777.836 309.941 777.961 309.747 778.1C309.51 778.295 309.302 778.461 309.079 778.601C308.871 778.753 308.676 778.892 308.467 779.018C308.259 779.143 308.078 779.296 307.883 779.435C307.674 779.574 307.494 779.754 307.313 779.949C306.59 780.728 306.019 781.937 305.811 783.258C305.783 784.384 305.936 785.468 306.186 786.483C306.437 787.498 306.798 788.443 307.229 789.319C307.355 788.986 307.48 788.749 307.661 788.805C307.841 788.86 308.05 789.194 308.453 790C309.051 791.154 309.19 791.891 309.427 792.725C310.609 794.157 311.847 795.256 312.89 796.131C313.933 796.993 314.809 797.633 315.393 798.092C317.702 799.843 319.872 801.414 321.721 803.013C323.571 804.612 325.087 806.238 326.186 807.837C327.285 809.45 327.994 811.007 328.3 812.411C328.62 813.815 328.578 815.067 328.3 816.067C327.702 814.497 326.7 812.828 325.226 811.188C323.752 809.547 321.833 807.948 319.621 806.35C317.396 804.751 314.837 803.124 312.194 801.122C310.873 800.121 309.538 798.995 308.259 797.716C307.619 797.063 306.993 796.396 306.395 795.645L305.95 795.075L305.519 794.477C305.227 794.088 304.976 793.657 304.712 793.24C304.211 792.378 303.738 791.502 303.349 790.557C303.14 790.098 302.987 789.597 302.807 789.111C302.723 788.86 302.654 788.61 302.584 788.36C302.515 788.11 302.445 787.86 302.389 787.595L302.223 786.817L302.097 786.01C302.056 785.746 302.028 785.468 302.014 785.19C302 784.912 301.972 784.634 301.958 784.356C301.93 783.244 302.014 782.09 302.25 780.936C302.32 780.644 302.389 780.366 302.473 780.074C302.515 779.935 302.542 779.782 302.584 779.643L302.737 779.226C302.848 778.948 302.932 778.656 303.057 778.392L303.446 777.572C304.003 776.501 304.698 775.486 305.519 774.611C305.908 774.152 306.367 773.762 306.798 773.359L307.494 772.803C307.73 772.609 307.966 772.442 308.217 772.289C309.19 771.608 310.233 771.093 311.304 770.648C312.375 770.203 313.502 769.898 314.642 769.647C315.783 769.439 316.951 769.3 318.133 769.314C318.425 769.314 318.731 769.314 319.023 769.342C319.315 769.355 319.621 769.369 319.899 769.411L320.762 769.508C321.04 769.55 321.332 769.606 321.61 769.647C321.888 769.689 322.18 769.745 322.445 769.814C322.723 769.884 323.001 769.939 323.279 770.009C323.822 770.162 324.378 770.315 324.906 770.509C325.977 770.871 326.993 771.33 327.98 771.816C328.967 772.303 329.899 772.873 330.817 773.457L331.151 773.679L331.318 773.79L331.401 773.846H331.374L331.443 773.888L331.582 773.957L331.791 774.068C331.833 773.971 331.86 773.846 331.888 773.749L331.93 773.623V773.596V773.582L331.958 773.526L332.013 773.429C332.166 773.179 332.305 772.942 332.486 772.678C333.168 771.649 333.933 770.634 334.851 769.675C335.087 769.439 335.309 769.189 335.56 768.966L335.935 768.619L336.339 768.271C336.881 767.812 337.465 767.395 338.063 767.02C339.273 766.269 340.581 765.685 341.999 765.296C343.418 764.907 344.962 764.712 346.575 764.879C348.174 765.032 349.843 765.546 351.262 766.408C352.68 767.27 353.863 768.41 354.739 769.633C355.615 770.857 356.255 772.164 356.686 773.484C357.117 774.805 357.367 776.168 357.409 777.53C357.465 778.823 357.367 780.088 357.173 781.27C356.978 782.451 356.7 783.55 356.394 784.579C356.074 785.607 355.726 786.58 355.365 787.498C355.003 788.416 354.628 789.264 354.252 790.126C353.877 790.988 353.473 791.822 353.098 792.642C352.694 793.462 352.291 794.269 351.874 795.061C348.55 801.359 344.711 806.503 341.137 810.312C337.535 814.121 334.225 816.651 331.763 817.903C333.78 816.554 336.38 814.399 339.134 811.368C340.525 809.867 341.944 808.143 343.376 806.238C344.795 804.32 346.213 802.207 347.576 799.927L347.646 800.024Z" fill="#4E376B"/>
<path d="M366.211 742.218C365.654 743.01 365.209 743.4 365.14 742.927C365.084 742.426 366.155 740.8 366.544 740.258C366.405 740.438 366.211 740.633 366.058 740.716C365.905 740.8 365.793 740.786 365.807 740.564C365.807 739.994 366.864 738.367 368.144 736.17C368.408 735.739 368.658 735.308 368.895 734.891C369.117 734.46 369.34 734.043 369.535 733.64C369.938 732.82 370.258 732 370.508 731.207C371.009 729.608 371.148 728.024 370.911 726.689C370.967 727.857 370.772 728.872 370.508 729.706C370.244 730.54 369.896 731.179 369.59 731.638C368.978 732.57 368.491 732.806 368.436 732.278C368.339 731.666 368.533 730.748 368.728 729.887C368.825 729.456 368.923 729.025 369.006 728.663C369.09 728.288 369.159 727.982 369.229 727.759C369.062 727.968 368.923 727.843 368.811 727.593C368.7 727.342 368.617 726.967 368.533 726.647C368.422 726.216 368.297 725.771 368.172 725.243C368.033 724.715 367.907 724.117 367.643 723.352C367.462 722.713 367.101 722.185 366.67 721.795C366.238 721.406 365.738 721.17 365.251 721.045C364.764 720.906 364.305 720.878 363.888 720.906C363.471 720.906 363.081 720.989 362.734 721.058C361.996 721.211 361.607 721.503 361.538 721.615C361.496 721.67 361.538 721.712 361.663 721.684C361.788 721.67 361.983 721.601 362.275 721.503C363.248 721.225 364.041 721.253 364.597 721.35C365.154 721.462 365.501 721.67 365.71 721.823C366.113 722.185 366.044 722.407 365.946 722.546C365.919 722.588 365.877 722.602 365.821 722.629C365.766 722.657 365.696 722.671 365.626 722.685C365.557 722.685 365.473 722.713 365.376 722.727C365.279 722.741 365.195 722.727 365.084 722.755C364.681 722.796 364.18 722.852 363.707 722.88C364.055 723.116 364.152 723.352 364.069 723.589C363.985 723.839 363.721 724.047 363.262 724.395C362.956 724.617 362.692 724.812 362.455 724.965C362.33 725.035 362.219 725.118 362.094 725.174C361.969 725.257 361.844 725.313 361.718 725.368C361.218 725.591 360.717 725.688 360.23 725.605C360.23 725.841 360.133 726.119 360.008 726.397C359.938 726.536 359.855 726.703 359.771 726.842C359.702 726.967 359.604 727.134 359.521 727.259C359.437 727.398 359.34 727.537 359.257 727.69C358.909 728.246 358.561 728.76 358.255 729.08C357.949 729.4 357.699 729.539 357.532 729.428C357.212 729.247 356.962 729.164 356.739 729.177C356.628 729.177 356.531 729.205 356.447 729.233C356.406 729.247 356.35 729.275 356.308 729.303L356.239 729.344H356.225C356.225 729.344 356.225 729.372 356.211 729.344L356.169 729.289C355.849 728.83 355.543 728.427 355.209 727.968C355.001 727.676 354.792 727.44 354.611 727.245C354.431 727.05 354.264 726.911 354.139 726.828C353.888 726.661 353.805 726.689 354.166 727.12C354.973 728.135 355.557 729.15 355.738 729.706C355.835 729.984 355.821 730.151 355.682 730.178C355.543 730.206 355.293 730.081 354.931 729.817C354.57 729.553 354.194 729.261 353.833 728.983C353.471 728.691 353.123 728.399 352.762 728.121L352.497 727.898C352.497 727.898 352.456 727.871 352.414 727.829L352.372 727.801L352.303 727.732C352.205 727.634 352.108 727.551 352.011 727.44C351.816 727.245 351.621 727.023 351.413 726.8C351.093 726.925 350.411 726.717 349.827 726.439C349.243 726.161 348.742 725.785 348.798 725.368C348.659 724.617 347.949 724.02 347.143 723.714C346.948 723.644 346.739 723.575 346.545 723.533C346.35 723.491 346.155 723.464 345.975 723.436C345.613 723.408 345.307 723.408 345.126 723.436C345.724 723.436 346.434 723.561 346.976 723.936C347.31 724.159 347.226 724.395 346.934 724.562C346.795 724.645 346.6 724.701 346.392 724.757C346.281 724.784 346.169 724.798 346.058 724.812C346.002 724.812 345.947 724.812 345.877 724.812C345.822 724.812 345.752 724.812 345.696 724.826C345.057 724.826 344.556 724.729 344.055 724.576C343.805 724.506 343.555 724.437 343.304 724.395C343.054 724.367 342.776 724.326 342.498 724.367C341.691 724.451 340.815 724.812 340.05 725.368C340.397 725.299 340.731 725.299 340.954 725.354C341.19 725.424 341.343 725.535 341.385 725.674C341.427 725.827 341.329 725.994 341.121 726.23C341.009 726.341 340.87 726.453 340.69 726.606C340.606 726.675 340.495 726.745 340.397 726.828C340.3 726.911 340.189 727.009 340.05 727.092C339.897 727.231 339.744 727.342 339.591 727.44C339.452 727.551 339.313 727.634 339.174 727.732C339.034 727.815 338.909 727.926 338.77 728.024C338.631 728.121 338.506 728.246 338.381 728.385C337.88 728.927 337.491 729.747 337.352 730.665C337.338 731.444 337.435 732.194 337.616 732.889C337.797 733.585 338.033 734.252 338.339 734.836C338.423 734.613 338.506 734.446 338.631 734.474C338.756 734.516 338.909 734.738 339.174 735.308C339.591 736.101 339.674 736.615 339.841 737.185C340.662 738.172 341.51 738.937 342.233 739.535C342.957 740.133 343.555 740.577 343.958 740.883C345.543 742.093 347.045 743.177 348.325 744.275C349.605 745.374 350.648 746.5 351.413 747.598C352.164 748.71 352.65 749.781 352.873 750.754C353.095 751.727 353.068 752.575 352.873 753.27C352.47 752.186 351.774 751.032 350.745 749.906C349.73 748.766 348.408 747.668 346.879 746.569C345.349 745.457 343.582 744.345 341.76 742.955C340.856 742.26 339.925 741.495 339.048 740.605C338.603 740.16 338.172 739.702 337.769 739.173L337.463 738.784L337.171 738.367C336.976 738.103 336.795 737.797 336.615 737.519C336.267 736.935 335.947 736.323 335.683 735.67C335.544 735.35 335.432 735.016 335.307 734.669C335.252 734.502 335.21 734.321 335.154 734.155C335.099 733.988 335.057 733.807 335.015 733.626L334.89 733.084L334.806 732.528C334.779 732.347 334.751 732.153 334.751 731.958C334.751 731.763 334.723 731.583 334.709 731.388C334.681 730.609 334.751 729.817 334.904 729.025C334.946 728.83 335.001 728.635 335.057 728.427C335.085 728.329 335.112 728.232 335.14 728.135L335.238 727.843C335.307 727.648 335.377 727.454 335.46 727.259L335.724 726.689C336.114 725.952 336.587 725.243 337.157 724.645C337.421 724.326 337.741 724.061 338.047 723.783L338.534 723.408C338.687 723.283 338.854 723.158 339.034 723.047C339.702 722.588 340.425 722.226 341.162 721.907C341.9 721.601 342.678 721.392 343.457 721.225C344.25 721.086 345.057 720.989 345.863 720.989C346.072 720.989 346.267 720.989 346.475 721.003C346.684 721.003 346.892 721.017 347.087 721.045L347.685 721.114C347.88 721.142 348.075 721.184 348.269 721.211C348.464 721.239 348.659 721.281 348.853 721.337C349.048 721.378 349.243 721.42 349.424 721.476C349.799 721.587 350.175 721.684 350.536 721.823C351.273 722.073 351.983 722.379 352.664 722.727C353.346 723.06 353.986 723.45 354.625 723.853L354.862 724.006L354.973 724.089L355.029 724.131H355.015L355.07 724.159L355.168 724.2L355.321 724.284C355.321 724.284 355.376 724.131 355.39 724.061L355.418 723.964V723.936L355.432 723.908L355.474 723.839C355.585 723.672 355.682 723.505 355.794 723.325C356.266 722.616 356.795 721.907 357.421 721.253C357.574 721.086 357.741 720.919 357.908 720.767L358.158 720.53L358.436 720.294C358.812 719.974 359.215 719.696 359.618 719.432C360.453 718.918 361.357 718.514 362.33 718.236C363.304 717.972 364.375 717.833 365.487 717.944C366.586 718.056 367.74 718.403 368.728 719.001C369.715 719.599 370.522 720.377 371.12 721.225C371.732 722.073 372.163 722.977 372.455 723.881C372.747 724.798 372.914 725.73 372.956 726.661C372.984 727.551 372.928 728.427 372.789 729.233C372.65 730.039 372.469 730.804 372.247 731.513C372.024 732.222 371.788 732.889 371.537 733.529C371.287 734.155 371.023 734.752 370.772 735.35C370.522 735.948 370.23 736.518 369.966 737.088C369.688 737.658 369.409 738.214 369.117 738.756C366.823 743.108 364.18 746.639 361.718 749.266C359.229 751.894 356.948 753.632 355.251 754.494C356.642 753.562 358.436 752.075 360.341 749.989C361.301 748.947 362.275 747.765 363.262 746.458C364.236 745.137 365.223 743.678 366.155 742.107L366.211 742.218Z" fill="#4E376B"/>
</g>
<g opacity="0.3">
<path d="M658.666 583.722C659.717 580.929 661.813 578.826 664.616 577.426C666.024 576.718 667.468 576.07 668.955 575.553C673.522 573.972 677.729 571.726 681.647 568.905C683.593 567.505 685.606 566.238 688.018 565.683C693.333 564.465 697.995 566.54 700.54 571.345C701.855 573.837 702.55 576.509 702.807 579.288C703.264 584.162 704.543 588.773 706.504 593.274C708.944 598.859 707.921 604.215 704.697 609.239C704.116 610.14 703.212 610.748 702.354 611.39C698.984 613.878 688.567 612.86 685.728 608.486C682.57 603.623 677.224 602.066 671.795 601.034C670.435 600.771 669.062 600.578 667.687 600.407C659.503 599.41 654.476 592.786 658.666 583.722Z" fill="url(#paint3_linear_4519_5747)"/>
<path d="M680.243 546.421C682.636 540.939 687.044 538.322 691.473 539.392C693.411 539.865 694.838 541.072 695.946 542.645C699.801 548.085 698.069 557.119 692.484 560.798C688.404 563.482 683.592 562.442 681.045 558.257C678.621 554.267 678.881 550.123 680.243 546.421Z" fill="url(#paint4_linear_4519_5747)"/>
<path d="M706.299 570.873C702.355 569.165 700.945 566.83 700.544 563.833C699.744 557.839 704.369 551.053 710.242 549.553C715.947 548.089 720.64 551.668 720.751 557.571C720.853 563.062 716.896 568.719 711.685 570.502C709.53 571.24 707.376 571.358 706.303 570.882L706.299 570.873Z" fill="url(#paint5_linear_4519_5747)"/>
<path d="M675.245 564.737C674.792 565.949 674.087 566.987 673.22 567.921C669.772 571.648 664.67 571.357 661.685 567.278C658.431 562.829 658.988 555.667 662.904 551.779C666.538 548.168 671.787 548.761 674.499 553.166C676.781 556.862 676.799 560.775 675.249 564.746L675.245 564.737Z" fill="url(#paint6_linear_4519_5747)"/>
<path d="M711.556 579.687C713.008 576.334 715.463 573.987 718.886 572.77C721.786 571.736 724.636 571.907 727.055 574.041C729.444 576.154 729.848 578.978 729.105 581.848C727.89 586.503 724.942 589.704 720.252 591.091C717.325 591.955 714.553 591.506 712.406 589.228C710.206 586.898 710.116 584.03 710.966 581.084C711.099 580.602 711.353 580.156 711.556 579.687Z" fill="url(#paint7_linear_4519_5747)"/>
</g>
<g opacity="0.3">
<path d="M827.343 323.981C827.644 319.049 829.934 314.702 833.683 311.121C835.565 309.314 837.533 307.584 839.633 306.042C846.084 301.313 851.643 295.709 856.464 289.338C858.86 286.174 861.425 283.189 864.969 281.134C872.782 276.616 881.166 277.624 887.536 283.982C890.831 287.282 893.233 291.17 894.994 295.439C898.095 302.925 902.366 309.594 907.663 315.756C914.245 323.401 915.239 332.371 912.591 341.888C912.112 343.597 910.978 344.999 909.934 346.433C905.817 352.012 888.845 355.482 882.222 349.948C874.856 343.798 865.641 343.942 856.55 344.957C854.273 345.205 852.007 345.569 849.749 345.97C836.318 348.384 825.136 340.359 827.343 323.981Z" fill="url(#paint8_linear_4519_5747)"/>
<path d="M843.28 254.46C844.391 244.622 850.086 238.334 857.613 237.867C860.908 237.67 863.754 238.882 866.274 240.83C875.024 247.554 876.691 262.687 869.652 271.228C864.508 277.464 856.389 278.166 850.319 272.789C844.54 267.661 842.93 260.979 843.28 254.46Z" fill="url(#paint9_linear_4519_5747)"/>
<path d="M896.417 280.426C889.347 279.647 885.977 276.643 883.882 272.098C879.693 263.009 883.699 250.02 892.255 244.783C900.565 239.685 909.733 243.057 912.788 252.34C915.627 260.975 912.127 271.851 904.755 277.213C901.706 279.432 898.357 280.669 896.427 280.439L896.417 280.426Z" fill="url(#paint10_linear_4519_5747)"/>
<path d="M844.308 285.866C844.184 288.003 843.574 289.99 842.659 291.889C839.024 299.466 830.812 301.494 824.102 296.498C816.785 291.049 814.173 279.45 818.471 271.391C822.457 263.906 831.048 262.286 837.487 267.93C842.898 272.662 844.835 278.842 844.319 285.879L844.308 285.866Z" fill="url(#paint11_linear_4519_5747)"/>
<path d="M909.025 291.804C909.686 285.791 912.424 280.883 917.244 277.288C921.326 274.238 925.918 273.119 930.784 275.314C935.593 277.492 937.609 281.762 937.834 286.662C938.182 294.618 935.081 301.119 928.34 305.599C924.132 308.393 919.528 309.034 915.022 306.479C910.406 303.867 908.864 299.375 908.772 294.301C908.747 293.474 908.932 292.643 909.025 291.804Z" fill="url(#paint12_linear_4519_5747)"/>
</g>
<g opacity="0.3">
<path d="M1121.73 62.0842C1123.77 59.9099 1126.52 58.7755 1129.64 58.5611C1131.22 58.449 1132.8 58.4061 1134.37 58.5014C1139.19 58.7976 1143.94 58.3429 1148.64 57.2461C1150.98 56.7025 1153.32 56.3072 1155.76 56.7221C1161.14 57.6428 1164.64 61.3508 1165.14 66.765C1165.4 69.5709 1165.01 72.3051 1164.18 74.9683C1162.73 79.6438 1162.13 84.3918 1162.21 89.3007C1162.32 95.3948 1159.31 99.9454 1154.4 103.343C1153.52 103.951 1152.45 104.164 1151.41 104.427C1147.35 105.427 1138.12 100.481 1137.18 95.3515C1136.14 89.6486 1131.8 86.1544 1127.19 83.1134C1126.04 82.3482 1124.84 81.6421 1123.64 80.9558C1116.47 76.8871 1114.38 68.8392 1121.73 62.0842Z" fill="url(#paint13_linear_4519_5747)"/>
<path d="M1155.99 35.9522C1160.31 31.812 1165.39 31.0919 1169.06 33.7834C1170.67 34.9653 1171.52 36.628 1171.94 38.5062C1173.41 45.0108 1168.33 52.6837 1161.76 53.9309C1156.96 54.8397 1152.92 52.0282 1152.18 47.1858C1151.48 42.5707 1153.31 38.8449 1155.99 35.9522Z" fill="url(#paint14_linear_4519_5747)"/>
<path d="M1170.64 68.5446C1167.66 65.451 1167.25 62.7531 1168.04 59.8329C1169.6 53.9926 1176.48 49.5072 1182.48 50.381C1188.31 51.2246 1191.26 56.3328 1189.1 61.8251C1187.08 66.9327 1181.25 70.6323 1175.75 70.2741C1173.48 70.1265 1171.45 69.4071 1170.64 68.5545L1170.64 68.5446Z" fill="url(#paint15_linear_4519_5747)"/>
<path d="M1144.34 50.9365C1143.45 51.881 1142.4 52.568 1141.24 53.0966C1136.63 55.2111 1132.03 52.98 1130.84 48.0667C1129.55 42.7084 1132.82 36.312 1137.93 34.2292C1142.67 32.2931 1147.29 34.86 1148.1 39.9694C1148.78 44.2585 1147.29 47.877 1144.34 50.9463L1144.34 50.9365Z" fill="url(#paint16_linear_4519_5747)"/>
<path d="M1172.1 78.7022C1174.73 76.1648 1177.9 74.9432 1181.53 75.1358C1184.6 75.2965 1187.17 76.5514 1188.58 79.4509C1189.97 82.3207 1189.26 85.0832 1187.47 87.4462C1184.56 91.2762 1180.61 93.097 1175.74 92.5735C1172.71 92.245 1170.32 90.7637 1169.22 87.8358C1168.08 84.8387 1169.1 82.1565 1171.02 79.7644C1171.33 79.3706 1171.73 79.0562 1172.1 78.7022Z" fill="url(#paint17_linear_4519_5747)"/>
</g>
<defs>
<linearGradient id="paint0_linear_4519_5747" x1="494.035" y1="135.552" x2="608.605" y2="135.552" gradientUnits="userSpaceOnUse">
<stop stop-color="#3F265F"/>
<stop offset="1" stop-color="#210547" stop-opacity="0.48"/>
</linearGradient>
<linearGradient id="paint1_linear_4519_5747" x1="485.995" y1="22.9427" x2="514.253" y2="22.9427" gradientUnits="userSpaceOnUse">
<stop stop-color="#3F265F"/>
<stop offset="1" stop-color="#210547" stop-opacity="0.48"/>
</linearGradient>
<linearGradient id="paint2_linear_4519_5747" x1="-0.0130864" y1="92.1146" x2="78.0141" y2="92.1146" gradientUnits="userSpaceOnUse">
<stop stop-color="#3F265F"/>
<stop offset="1" stop-color="#210547" stop-opacity="0.48"/>
</linearGradient>
<linearGradient id="paint3_linear_4519_5747" x1="674.524" y1="571.055" x2="692.813" y2="615.457" gradientUnits="userSpaceOnUse">
<stop stop-color="#3F265F"/>
<stop offset="1" stop-color="white"/>
</linearGradient>
<linearGradient id="paint4_linear_4519_5747" x1="684.484" y1="540.567" x2="692.835" y2="560.841" gradientUnits="userSpaceOnUse">
<stop stop-color="#3F265F"/>
<stop offset="1" stop-color="white"/>
</linearGradient>
<linearGradient id="paint5_linear_4519_5747" x1="706.791" y1="550.859" x2="714.425" y2="569.393" gradientUnits="userSpaceOnUse">
<stop stop-color="#3F265F"/>
<stop offset="1" stop-color="white"/>
</linearGradient>
<linearGradient id="paint6_linear_4519_5747" x1="664.061" y1="550.587" x2="671.802" y2="569.379" gradientUnits="userSpaceOnUse">
<stop stop-color="#3F265F"/>
<stop offset="1" stop-color="white"/>
</linearGradient>
<linearGradient id="paint7_linear_4519_5747" x1="716.602" y1="573.689" x2="723.29" y2="589.925" gradientUnits="userSpaceOnUse">
<stop stop-color="#3F265F"/>
<stop offset="1" stop-color="white"/>
</linearGradient>
<linearGradient id="paint8_linear_4519_5747" x1="846.246" y1="296.211" x2="896.828" y2="357.519" gradientUnits="userSpaceOnUse">
<stop stop-color="#3F265F"/>
<stop offset="1" stop-color="white"/>
</linearGradient>
<linearGradient id="paint9_linear_4519_5747" x1="847.131" y1="243.133" x2="870.227" y2="271.126" gradientUnits="userSpaceOnUse">
<stop stop-color="#3F265F"/>
<stop offset="1" stop-color="white"/>
</linearGradient>
<linearGradient id="paint10_linear_4519_5747" x1="887.434" y1="248.532" x2="908.547" y2="274.123" gradientUnits="userSpaceOnUse">
<stop stop-color="#3F265F"/>
<stop offset="1" stop-color="white"/>
</linearGradient>
<linearGradient id="paint11_linear_4519_5747" x1="819.72" y1="268.941" x2="841.127" y2="294.888" gradientUnits="userSpaceOnUse">
<stop stop-color="#3F265F"/>
<stop offset="1" stop-color="white"/>
</linearGradient>
<linearGradient id="paint12_linear_4519_5747" x1="914.08" y1="279.856" x2="932.576" y2="302.274" gradientUnits="userSpaceOnUse">
<stop stop-color="#3F265F"/>
<stop offset="1" stop-color="white"/>
</linearGradient>
<linearGradient id="paint13_linear_4519_5747" x1="1141.24" y1="56.4905" x2="1141.04" y2="104.512" gradientUnits="userSpaceOnUse">
<stop stop-color="#3F265F"/>
<stop offset="1" stop-color="white"/>
</linearGradient>
<linearGradient id="paint14_linear_4519_5747" x1="1162.16" y1="32.1793" x2="1162.07" y2="54.1058" gradientUnits="userSpaceOnUse">
<stop stop-color="#3F265F"/>
<stop offset="1" stop-color="white"/>
</linearGradient>
<linearGradient id="paint15_linear_4519_5747" x1="1178.79" y1="50.2596" x2="1178.71" y2="70.3041" gradientUnits="userSpaceOnUse">
<stop stop-color="#3F265F"/>
<stop offset="1" stop-color="white"/>
</linearGradient>
<linearGradient id="paint16_linear_4519_5747" x1="1139.45" y1="33.5738" x2="1139.37" y2="53.8976" gradientUnits="userSpaceOnUse">
<stop stop-color="#3F265F"/>
<stop offset="1" stop-color="white"/>
</linearGradient>
<linearGradient id="paint17_linear_4519_5747" x1="1179.07" y1="75.106" x2="1179" y2="92.6658" gradientUnits="userSpaceOnUse">
<stop stop-color="#3F265F"/>
<stop offset="1" stop-color="white"/>
</linearGradient>
<clipPath id="clip0_4519_5747">
<rect width="71" height="100" fill="white" transform="translate(302 718)"/>
</clipPath>
</defs>
</svg>
