<svg viewBox="0 0 111 122" fill="none" xmlns="http://www.w3.org/2000/svg">
<g clip-path="url(#clip0_2011_3551)">
<path d="M42.5985 87.7747C41.8185 90.8928 38.9677 95.634 34.9465 94.4055C31.8163 93.4909 31.3278 89.6513 32.9226 87.1674C34.6896 82.4032 45.3369 79.8817 42.5987 87.7753L42.5985 87.7747Z" fill="url(#paint0_linear_2011_3551)" fill-opacity="0.4"/>
<path d="M30.2432 90.3855C30.6552 93.3336 29.9804 98.4423 26.4374 98.9078C23.6931 99.3056 22.0546 96.2204 22.4871 93.506C22.3074 88.7851 29.7978 82.635 30.2432 90.3855Z" fill="url(#paint1_linear_2011_3551)" fill-opacity="0.4"/>
<path d="M49.5534 100.904C46.853 102.157 42.9267 105.494 44.457 108.723C45.611 111.245 49.0918 110.948 51.1378 109.113C55.2016 106.704 56.3068 97.0754 49.5534 100.904Z" fill="url(#paint2_linear_2011_3551)" fill-opacity="0.4"/>
<path d="M44.7798 88.9643C42.583 91.3107 40.1456 96.277 43.3584 98.9893C45.8244 101.123 49.3153 99.4515 50.5373 96.7646C53.5819 92.6963 49.9263 82.3832 44.7793 88.9645L44.7798 88.9643Z" fill="url(#paint3_linear_2011_3551)" fill-opacity="0.4"/>
<path d="M24.5805 101.402C26.7556 99.8597 29.6238 100.768 31.9608 99.5818C33.6287 98.9351 36.2972 97.6845 37.4451 97.8594C38.1522 97.9671 38.9828 98.4768 39.5391 99.0016C41.4008 100.294 40.8187 102.289 41.3343 104.884C41.6331 107.2 43.4277 108.881 43.7561 111.186C43.7752 114.543 40.391 117.213 37.375 117.147C36.5079 117.11 35.6909 116.598 34.9201 116.13C33.0688 114.967 32.6614 114.59 31.9163 114.066C31.1705 113.541 29.5857 112.595 28.7196 112.308C27.2171 111.81 24.2772 111.314 23.0339 109.523C21.4925 107.332 21.7607 102.562 24.5803 101.401L24.5805 101.402Z" fill="url(#paint4_linear_2011_3551)" fill-opacity="0.4"/>
</g>
<g clip-path="url(#clip1_2011_3551)">
<path d="M95.8435 39.9173C95.198 42.498 92.8386 46.4219 89.5105 45.4051C86.9199 44.6481 86.5156 41.4704 87.8355 39.4147C89.2979 35.4717 98.11 33.3848 95.8437 39.9178L95.8435 39.9173Z" fill="url(#paint5_linear_2011_3551)" fill-opacity="0.4"/>
<path d="M85.6196 42.0779C85.9606 44.5178 85.4021 48.7459 82.4698 49.1311C80.1985 49.4604 78.8425 46.907 79.2004 44.6605C79.0517 40.7533 85.251 35.6634 85.6196 42.0779Z" fill="url(#paint6_linear_2011_3551)" fill-opacity="0.4"/>
<path d="M101.599 50.7841C99.3644 51.8208 96.1148 54.5829 97.3814 57.2555C98.3364 59.3424 101.217 59.0969 102.911 57.578C106.274 55.584 107.189 47.6152 101.599 50.7841Z" fill="url(#paint7_linear_2011_3551)" fill-opacity="0.4"/>
<path d="M97.6497 40.902C95.8315 42.8439 93.8142 46.9541 96.4733 49.1989C98.5142 50.965 101.403 49.5815 102.415 47.3577C104.935 43.9906 101.909 35.4552 97.6492 40.9021L97.6497 40.902Z" fill="url(#paint8_linear_2011_3551)" fill-opacity="0.4"/>
<path d="M80.9305 51.1956C82.7307 49.9192 85.1045 50.6708 87.0386 49.6892C88.4191 49.154 90.6275 48.1189 91.5776 48.2637C92.1628 48.3529 92.8502 48.7747 93.3107 49.209C94.8514 50.2788 94.3697 51.9299 94.7964 54.0774C95.0437 55.994 96.529 57.3858 96.8007 59.293C96.8165 62.0718 94.0157 64.2817 91.5196 64.2268C90.8019 64.1959 90.1257 63.7724 89.4878 63.3849C87.9556 62.4223 87.6185 62.1107 87.0018 61.6768C86.3846 61.2422 85.073 60.4589 84.3561 60.2215C83.1126 59.8095 80.6794 59.3992 79.6505 57.9169C78.3747 56.1035 78.5968 52.1559 80.9303 51.1951L80.9305 51.1956Z" fill="url(#paint9_linear_2011_3551)" fill-opacity="0.4"/>
</g>
<g clip-path="url(#clip2_2011_3551)">
<path d="M34.726 13.5561C33.7446 17.4795 30.1576 23.4449 25.098 21.8992C21.1596 20.7484 20.5448 15.9173 22.5515 12.792C24.7748 6.79756 38.1716 3.62493 34.7262 13.5568L34.726 13.5561Z" fill="url(#paint10_linear_2011_3551)" fill-opacity="0.4"/>
<path d="M19.1811 16.8415C19.6994 20.5508 18.8504 26.9787 14.3925 27.5644C10.9395 28.0649 8.87795 24.183 9.4221 20.7677C9.19603 14.8278 18.6206 7.08957 19.1811 16.8415Z" fill="url(#paint11_linear_2011_3551)" fill-opacity="0.4"/>
<path d="M43.4784 30.0763C40.0808 31.6525 35.1406 35.8516 37.0661 39.9147C38.5181 43.0873 42.8976 42.7142 45.472 40.4049C50.5853 37.3736 51.9758 25.2588 43.4784 30.0763Z" fill="url(#paint12_linear_2011_3551)" fill-opacity="0.4"/>
<path d="M37.4726 15.0528C34.7085 18.0051 31.6416 24.2538 35.6841 27.6666C38.7868 30.3515 43.1792 28.2481 44.7168 24.8673C48.5476 19.7485 43.9481 6.77222 37.4719 15.0531L37.4726 15.0528Z" fill="url(#paint13_linear_2011_3551)" fill-opacity="0.4"/>
<path d="M12.0548 30.7029C14.7917 28.7624 18.4005 29.9051 21.3409 28.4127C23.4396 27.5991 26.7971 26.0255 28.2415 26.2456C29.1311 26.3811 30.1762 27.0224 30.8762 27.6827C33.2186 29.3091 32.4863 31.8192 33.1349 35.0841C33.5109 37.9978 35.769 40.1137 36.1821 43.0132C36.2061 47.2378 31.9481 50.5974 28.1532 50.5139C27.0622 50.467 26.0342 49.8231 25.0644 49.2341C22.735 47.7706 22.2225 47.2969 21.2849 46.6372C20.3466 45.9765 18.3526 44.7858 17.2628 44.4249C15.3723 43.7985 11.6732 43.1747 10.1089 40.9212C8.1694 38.1642 8.50695 32.1628 12.0546 30.7022L12.0548 30.7029Z" fill="url(#paint14_linear_2011_3551)" fill-opacity="0.4"/>
</g>
<defs>
<linearGradient id="paint0_linear_2011_3551" x1="40.6621" y1="82.4836" x2="34.2991" y2="94.1639" gradientUnits="userSpaceOnUse">
<stop stop-color="#933EFF"/>
<stop offset="1" stop-color="white" stop-opacity="0.95"/>
</linearGradient>
<linearGradient id="paint1_linear_2011_3551" x1="29.6724" y1="87.4043" x2="23.8028" y2="98.1789" gradientUnits="userSpaceOnUse">
<stop stop-color="#933EFF"/>
<stop offset="1" stop-color="white" stop-opacity="0.95"/>
</linearGradient>
<linearGradient id="paint2_linear_2011_3551" x1="52.3677" y1="99.7671" x2="46.4981" y2="110.542" gradientUnits="userSpaceOnUse">
<stop stop-color="#933EFF"/>
<stop offset="1" stop-color="white" stop-opacity="0.95"/>
</linearGradient>
<linearGradient id="paint3_linear_2011_3551" x1="50.2754" y1="87.7219" x2="43.9124" y2="99.4022" gradientUnits="userSpaceOnUse">
<stop stop-color="#933EFF"/>
<stop offset="1" stop-color="white" stop-opacity="0.95"/>
</linearGradient>
<linearGradient id="paint4_linear_2011_3551" x1="38.4851" y1="98.2388" x2="30.0046" y2="113.806" gradientUnits="userSpaceOnUse">
<stop stop-color="#933EFF"/>
<stop offset="1" stop-color="white" stop-opacity="0.95"/>
</linearGradient>
<linearGradient id="paint5_linear_2011_3551" x1="94.2409" y1="35.5382" x2="88.9748" y2="45.2052" gradientUnits="userSpaceOnUse">
<stop stop-color="#933EFF"/>
<stop offset="1" stop-color="white" stop-opacity="0.95"/>
</linearGradient>
<linearGradient id="paint6_linear_2011_3551" x1="85.1472" y1="39.6105" x2="80.2894" y2="48.5279" gradientUnits="userSpaceOnUse">
<stop stop-color="#933EFF"/>
<stop offset="1" stop-color="white" stop-opacity="0.95"/>
</linearGradient>
<linearGradient id="paint7_linear_2011_3551" x1="103.928" y1="49.8429" x2="99.0706" y2="58.7604" gradientUnits="userSpaceOnUse">
<stop stop-color="#933EFF"/>
<stop offset="1" stop-color="white" stop-opacity="0.95"/>
</linearGradient>
<linearGradient id="paint8_linear_2011_3551" x1="102.198" y1="39.8737" x2="96.9318" y2="49.5407" gradientUnits="userSpaceOnUse">
<stop stop-color="#933EFF"/>
<stop offset="1" stop-color="white" stop-opacity="0.95"/>
</linearGradient>
<linearGradient id="paint9_linear_2011_3551" x1="92.4383" y1="48.5777" x2="85.4196" y2="61.4618" gradientUnits="userSpaceOnUse">
<stop stop-color="#933EFF"/>
<stop offset="1" stop-color="white" stop-opacity="0.95"/>
</linearGradient>
<linearGradient id="paint10_linear_2011_3551" x1="32.2896" y1="6.89875" x2="24.2835" y2="21.5953" gradientUnits="userSpaceOnUse">
<stop stop-color="#933EFF"/>
<stop offset="1" stop-color="white" stop-opacity="0.95"/>
</linearGradient>
<linearGradient id="paint11_linear_2011_3551" x1="18.4629" y1="13.0903" x2="11.0776" y2="26.6473" gradientUnits="userSpaceOnUse">
<stop stop-color="#933EFF"/>
<stop offset="1" stop-color="white" stop-opacity="0.95"/>
</linearGradient>
<linearGradient id="paint12_linear_2011_3551" x1="47.0196" y1="28.6455" x2="39.6343" y2="42.2025" gradientUnits="userSpaceOnUse">
<stop stop-color="#933EFF"/>
<stop offset="1" stop-color="white" stop-opacity="0.95"/>
</linearGradient>
<linearGradient id="paint13_linear_2011_3551" x1="44.3873" y1="13.4896" x2="36.3812" y2="28.1861" gradientUnits="userSpaceOnUse">
<stop stop-color="#933EFF"/>
<stop offset="1" stop-color="white" stop-opacity="0.95"/>
</linearGradient>
<linearGradient id="paint14_linear_2011_3551" x1="29.55" y1="26.723" x2="18.8795" y2="46.3103" gradientUnits="userSpaceOnUse">
<stop stop-color="#933EFF"/>
<stop offset="1" stop-color="white" stop-opacity="0.95"/>
</linearGradient>
<clipPath id="clip0_2011_3551">
<rect width="34.1757" height="32.6044" fill="white" transform="translate(30.5977 77) rotate(28.5798)"/>
</clipPath>
<clipPath id="clip1_2011_3551">
<rect width="28.2848" height="26.9843" fill="white" transform="translate(85.9102 31) rotate(28.5798)"/>
</clipPath>
<clipPath id="clip2_2011_3551">
<rect width="43.0008" height="41.0238" fill="white" transform="translate(19.625) rotate(28.5798)"/>
</clipPath>
</defs>
</svg>
